<svg width="33" height="31" viewBox="0 0 33 31" fill="none" xmlns="http://www.w3.org/2000/svg">
<path d="M9.22851 12.8633L2.70312 6.40625L6.47461 2.6748L13.001 9.13184L13.001 -5.68291e-07L18.334 -8.01404e-07L18.334 8.12109C15.2166 9.18431 12.9736 12.136 12.9736 15.6133C12.9738 19.0904 15.2167 22.0413 18.334 23.1045L18.334 31.0049L13.001 31.0049L13.001 21.8721L6.47461 28.3301L2.70312 24.5986L9.22852 18.1416L-5.62272e-07 18.1416L-7.92995e-07 12.8633L9.22851 12.8633Z" fill="#0352FD"/>
<path d="M22.4056 15.1542L27.3554 20.104L23.8198 23.6395L15.3345 15.1542L23.8198 6.66895L27.3554 10.2045L22.4056 15.1542Z" fill="black"/>
</svg>
